<svg xmlns="http://www.w3.org/2000/svg"
   xmlns:xlink="http://www.w3.org/1999/xlink"
   version="1.1"
   id="hkspi1" width="100%" height="100%"  viewBox="-6 -6 1270 1306">
<desc>
XCircuit Version 3.10
File "housekeeping_regmap_1.ps" Page 1
</desc>
<g stroke="black">
<path d="M128,1300 L128,1204 528,1204 528,1300 z" fill="#e5e5e5" stroke-width="2" stroke-linejoin="bevel" stroke-linecap="round" stroke="#e5e5e5" />
<path d="M128,276 L128,196 608,196 608,276 z" fill="#e5e5e5" stroke-width="2" stroke-linejoin="bevel" stroke-linecap="round" stroke="#e5e5e5" />
<path d="M128,1204 L128,1108 368,1108 368,1204 z" fill="#e5e5e5" stroke-width="2" stroke-linejoin="bevel" stroke-linecap="round" stroke="#e5e5e5" />
<path d="M128,628 L128,532 832,532 832,628 z" fill="#e5e5e5" stroke-width="2" stroke-linejoin="bevel" stroke-linecap="round" stroke="#e5e5e5" />
<path d="M128,1012 L128,628 960,628 960,1012 z" fill="#e5e5e5" stroke-width="2" stroke-linejoin="bevel" stroke-linecap="round" stroke="#e5e5e5" />
<path d="M0,196 L1264,196 " fill="none" stroke-width="2" stroke-linejoin="bevel" stroke-linecap="round" stroke="#000000" />
<g transform="matrix( 0.7    0   -0  0.7 176  68)" fill="#000000" >
<text stroke="none" font-family="Helvetica"  font-style="oblique" font-size="40" ><tspan x="-38" y="0">msb</tspan>
</text></g>
<g transform="matrix( 0.7    0   -0  0.7 1008  68)" fill="#000000" >
<text stroke="none" font-family="Helvetica"  font-style="oblique" font-size="40" ><tspan x="-26" y="0">lsb</tspan>
</text></g>
<g transform="matrix( 0.7    0   -0  0.7 608 316)" fill="#000000" >
<text stroke="none" font-family="Helvetica" font-size="40" ><tspan x="-268" y="15">manufacturer_ID[7:0] (= 0x56)</tspan>
</text></g>
<path d="M0,356 L1264,356 " fill="none" stroke-width="2" stroke-linejoin="bevel" stroke-linecap="round" stroke="#000000" />
<path d="M0,68 L0,1300 " fill="none" stroke-width="2" stroke-linejoin="bevel" stroke-linecap="round" stroke="#000000" />
<g transform="matrix( 0.7    0   -0  0.7  64 100)" fill="#000000" >
<text stroke="none" font-family="Helvetica"  font-style="oblique" font-size="40" ><tspan x="-75" y="-40">Register</tspan><tspan x="-75" y="0">Address</tspan>
</text></g>
<path d="M0,116 L1264,116 " fill="none" stroke-width="2" stroke-linejoin="bevel" stroke-linecap="round" stroke="#000000" />
<path d="M0,436 L1264,436 " fill="none" stroke-width="2" stroke-linejoin="bevel" stroke-linecap="round" stroke="#000000" />
<g transform="matrix( 0.7    0   -0  0.7 624 388)" fill="#000000" >
<text stroke="none" font-family="Helvetica" font-size="40" ><tspan x="-178" y="15">product_ID (= 0x10)</tspan>
</text></g>
<g transform="matrix( 0.7    0   -0  0.7  64 164)" fill="#000000" >
<text stroke="none" font-family="Helvetica" font-size="40" ><tspan x="-44" y="0">0x00</tspan>
</text></g>
<g transform="matrix( 0.7    0   -0  0.7  64 244)" fill="#000000" >
<text stroke="none" font-family="Helvetica" font-size="40" ><tspan x="-44" y="0">0x01</tspan>
</text></g>
<path d="M0,724 L1264,724 " fill="none" stroke-width="2" stroke-linejoin="bevel" stroke-linecap="round" stroke="#000000" />
<path d="M240,84 L240,116 " fill="none" stroke-width="2" stroke-linejoin="bevel" stroke-linecap="round" stroke="#000000" />
<path d="M368,84 L368,116 " fill="none" stroke-width="2" stroke-linejoin="bevel" stroke-linecap="round" stroke="#000000" />
<path d="M496,84 L496,116 " fill="none" stroke-width="2" stroke-linejoin="bevel" stroke-linecap="round" stroke="#000000" />
<path d="M608,84 L608,116 " fill="none" stroke-width="2" stroke-linejoin="bevel" stroke-linecap="round" stroke="#000000" />
<path d="M720,84 L720,116 " fill="none" stroke-width="2" stroke-linejoin="bevel" stroke-linecap="round" stroke="#000000" />
<path d="M832,84 L832,116 " fill="none" stroke-width="2" stroke-linejoin="bevel" stroke-linecap="round" stroke="#000000" />
<path d="M960,84 L960,116 " fill="none" stroke-width="2" stroke-linejoin="bevel" stroke-linecap="round" stroke="#000000" />
<path d="M1072,68 L1072,1300 " fill="none" stroke-width="2" stroke-linejoin="bevel" stroke-linecap="round" stroke="#000000" />
<g transform="matrix( 0.7    0   -0  0.7 176 100)" fill="#000000" >
<text stroke="none" font-family="Helvetica" font-size="40" ><tspan x="0" y="0">7</tspan>
</text></g>
<g transform="matrix( 0.7    0   -0  0.7 288 100)" fill="#000000" >
<text stroke="none" font-family="Helvetica" font-size="40" ><tspan x="0" y="0">6</tspan>
</text></g>
<g transform="matrix( 0.7    0   -0  0.7 416 100)" fill="#000000" >
<text stroke="none" font-family="Helvetica" font-size="40" ><tspan x="0" y="0">5</tspan>
</text></g>
<g transform="matrix( 0.7    0   -0  0.7 544 100)" fill="#000000" >
<text stroke="none" font-family="Helvetica" font-size="40" ><tspan x="0" y="0">4</tspan>
</text></g>
<g transform="matrix( 0.7    0   -0  0.7 656 100)" fill="#000000" >
<text stroke="none" font-family="Helvetica" font-size="40" ><tspan x="0" y="0">3</tspan>
</text></g>
<g transform="matrix( 0.7    0   -0  0.7 768 100)" fill="#000000" >
<text stroke="none" font-family="Helvetica" font-size="40" ><tspan x="0" y="0">2</tspan>
</text></g>
<g transform="matrix( 0.7    0   -0  0.7 880 100)" fill="#000000" >
<text stroke="none" font-family="Helvetica" font-size="40" ><tspan x="0" y="0">1</tspan>
</text></g>
<g transform="matrix( 0.7    0   -0  0.7 1008 100)" fill="#000000" >
<text stroke="none" font-family="Helvetica" font-size="40" ><tspan x="0" y="0">0</tspan>
</text></g>
<g transform="matrix( 0.7    0   -0  0.7 1152 100)" fill="#000000" >
<text stroke="none" font-family="Helvetica"  font-style="oblique" font-size="40" ><tspan x="-93" y="0">comments</tspan>
</text></g>
<path d="M0,820 L1264,820 " fill="none" stroke-width="2" stroke-linejoin="bevel" stroke-linecap="round" stroke="#000000" />
<path d="M0,916 L1264,916 " fill="none" stroke-width="2" stroke-linejoin="bevel" stroke-linecap="round" stroke="#000000" />
<path d="M0,628 L1264,628 " fill="none" stroke-width="2" stroke-linejoin="bevel" stroke-linecap="round" stroke="#000000" />
<path d="M0,532 L1264,532 " fill="none" stroke-width="2" stroke-linejoin="bevel" stroke-linecap="round" stroke="#000000" />
<path d="M0,276 L1264,276 " fill="none" stroke-width="2" stroke-linejoin="bevel" stroke-linecap="round" stroke="#000000" />
<g transform="matrix( 0.7    0   -0  0.7  64 324)" fill="#000000" >
<text stroke="none" font-family="Helvetica" font-size="40" ><tspan x="-44" y="0">0x02</tspan>
</text></g>
<path d="M608,196 L608,276 " fill="none" stroke-width="2" stroke-linejoin="bevel" stroke-linecap="round" stroke="#000000" />
<g transform="matrix( 0.7    0   -0  0.7 832 228)" fill="#000000" >
<text stroke="none" font-family="Helvetica" font-size="40" ><tspan x="-268" y="15">manufacturer_ID[11:8] (= 0x4)</tspan>
</text></g>
<g transform="matrix( 0.7    0   -0  0.7  64 404)" fill="#000000" >
<text stroke="none" font-family="Helvetica" font-size="40" ><tspan x="-44" y="0">0x03</tspan>
</text></g>
<g transform="matrix( 0.7    0   -0  0.7  64 596)" fill="#000000" >
<text stroke="none" font-family="Helvetica" font-size="40" ><tspan x="-44" y="0">0x08</tspan>
</text></g>
<g transform="matrix( 0.7    0   -0  0.7  64 692)" fill="#000000" >
<text stroke="none" font-family="Helvetica" font-size="40" ><tspan x="-44" y="0">0x09</tspan>
</text></g>
<g transform="matrix( 0.7    0   -0  0.7  64 788)" fill="#000000" >
<text stroke="none" font-family="Helvetica" font-size="40" ><tspan x="-46" y="0">0x0A</tspan>
</text></g>
<g transform="matrix( 0.7    0   -0  0.7  64 884)" fill="#000000" >
<text stroke="none" font-family="Helvetica" font-size="40" ><tspan x="-46" y="0">0x0B</tspan>
</text></g>
<g transform="matrix( 0.7    0   -0  0.7  64 980)" fill="#000000" >
<text stroke="none" font-family="Helvetica" font-size="40" ><tspan x="-47" y="0">0x0C</tspan>
</text></g>
<g transform="matrix( 0.7    0   -0  0.7  64 1268)" fill="#000000" >
<text stroke="none" font-family="Helvetica" font-size="40" ><tspan x="-44" y="0">0x12</tspan>
</text></g>
<g transform="matrix( 0.7    0   -0  0.7 624 148)" fill="#000000" >
<text stroke="none" font-family="Helvetica" font-size="40" ><tspan x="-197" y="15">SPI status and control</tspan>
</text></g>
<g transform="matrix( 0.7    0   -0  0.7 1168 228)" fill="#000000" >
<text stroke="none" font-family="Helvetica" font-size="40" ><tspan x="-84" y="15">read-only</tspan>
</text></g>
<g transform="matrix( 0.7    0   -0  0.7 1168 316)" fill="#000000" >
<text stroke="none" font-family="Helvetica" font-size="40" ><tspan x="-84" y="15">read-only</tspan>
</text></g>
<g transform="matrix( 0.7    0   -0  0.7 1168 396)" fill="#000000" >
<text stroke="none" font-family="Helvetica" font-size="40" ><tspan x="-84" y="15">read-only</tspan>
</text></g>
<g transform="matrix( 0.7    0   -0  0.7 1152 148)" fill="#000000" >
<text stroke="none" font-family="Helvetica" font-size="40" ><tspan x="-72" y="-5">unused/</tspan><tspan x="-89" y="35">undefined</tspan>
</text></g>
<path d="M128,68 L128,1300 " fill="none" stroke-width="2" stroke-linejoin="bevel" stroke-linecap="round" stroke="#000000" />
<g transform="matrix( 0.7    0   -0  0.7 1168 964)" fill="#000000" >
<text stroke="none" font-family="Helvetica" font-size="40" ><tspan x="-84" y="15">read-only</tspan>
</text></g>
<g transform="matrix( 0.7    0   -0  0.7 528 964)" fill="#000000" >
<text stroke="none" font-family="Helvetica" font-size="40" ><tspan x="-66" y="15">unused</tspan>
</text></g>
<path d="M960,532 L960,628 " fill="none" stroke-width="2" stroke-linejoin="bevel" stroke-linecap="round" stroke="#000000" />
<path d="M832,532 L832,628 " fill="none" stroke-width="2" stroke-linejoin="bevel" stroke-linecap="round" stroke="#000000" />
<g transform="matrix( 0.7    0   -0  0.7 896 580)" fill="#000000" >
<text stroke="none" font-family="Helvetica" font-size="40" ><tspan x="-36" y="-25">PLL</tspan><tspan x="-45" y="15">DCO</tspan><tspan x="-61" y="55">enable</tspan>
</text></g>
<g transform="matrix( 0.7    0   -0  0.7 1168 580)" fill="#000000" >
<text stroke="none" font-family="Helvetica" font-size="40" ><tspan x="-110" y="15">default 0x02</tspan>
</text></g>
<path d="M960,628 L960,724 " fill="none" stroke-width="2" stroke-linejoin="bevel" stroke-linecap="round" stroke="#000000" />
<g transform="matrix( 0.7    0   -0  0.7 1016 676)" fill="#000000" >
<text stroke="none" font-family="Helvetica" font-size="40" ><tspan x="-36" y="-5">PLL</tspan><tspan x="-64" y="35">bypass</tspan>
</text></g>
<g transform="matrix( 0.7    0   -0  0.7 1168 676)" fill="#000000" >
<text stroke="none" font-family="Helvetica" font-size="40" ><tspan x="-110" y="15">default 0x01</tspan>
</text></g>
<path d="M960,724 L960,820 " fill="none" stroke-width="2" stroke-linejoin="bevel" stroke-linecap="round" stroke="#000000" />
<path d="M960,820 L960,916 " fill="none" stroke-width="2" stroke-linejoin="bevel" stroke-linecap="round" stroke="#000000" />
<path d="M960,916 L960,1012 " fill="none" stroke-width="2" stroke-linejoin="bevel" stroke-linecap="round" stroke="#000000" />
<g transform="matrix( 0.7    0   -0  0.7 1008 772)" fill="#000000" >
<text stroke="none" font-family="Helvetica" font-size="40" ><tspan x="-42" y="-5">CPU</tspan><tspan x="-35" y="35">IRQ</tspan>
</text></g>
<g transform="matrix( 0.7    0   -0  0.7 1008 868)" fill="#000000" >
<text stroke="none" font-family="Helvetica" font-size="40" ><tspan x="-42" y="-5">CPU</tspan><tspan x="-45" y="35">reset</tspan>
</text></g>
<g transform="matrix( 0.7    0   -0  0.7 1008 964)" fill="#000000" >
<text stroke="none" font-family="Helvetica" font-size="40" ><tspan x="-42" y="-5">CPU</tspan><tspan x="-34" y="35">trap</tspan>
</text></g>
<g transform="matrix( 0.7    0   -0  0.7 528 868)" fill="#000000" >
<text stroke="none" font-family="Helvetica" font-size="40" ><tspan x="-66" y="15">unused</tspan>
</text></g>
<g transform="matrix( 0.7    0   -0  0.7 528 772)" fill="#000000" >
<text stroke="none" font-family="Helvetica" font-size="40" ><tspan x="-66" y="15">unused</tspan>
</text></g>
<g transform="matrix( 0.7    0   -0  0.7 528 676)" fill="#000000" >
<text stroke="none" font-family="Helvetica" font-size="40" ><tspan x="-66" y="15">unused</tspan>
</text></g>
<g transform="matrix( 0.7    0   -0  0.7 1168 772)" fill="#000000" >
<text stroke="none" font-family="Helvetica" font-size="40" ><tspan x="-110" y="15">default 0x00</tspan>
</text></g>
<g transform="matrix( 0.7    0   -0  0.7 1168 868)" fill="#000000" >
<text stroke="none" font-family="Helvetica" font-size="40" ><tspan x="-110" y="15">default 0x00</tspan>
</text></g>
<g transform="matrix( 0.7    0   -0  0.7 288  20)" fill="#000000" >
<text stroke="none" font-family="Helvetica"  font-style="oblique" font-size="40" ><tspan x="0" y="0">Table 9</tspan>
</text></g>
<g transform="matrix( 0.7    0   -0  0.7 448  20)" fill="#000000" >
<text stroke="none" font-family="Helvetica"  font-weight="bold" font-size="40" ><tspan x="0" y="0">Housekeeping SPI register map</tspan>
</text></g>
<path d="M0,1012 L1264,1012 " fill="none" stroke-width="2" stroke-linejoin="bevel" stroke-linecap="round" stroke="#000000" />
<path d="M0,1108 L1264,1108 " fill="none" stroke-width="2" stroke-linejoin="bevel" stroke-linecap="round" stroke="#000000" />
<path d="M0,1300 L1264,1300 " fill="none" stroke-width="2" stroke-linejoin="bevel" stroke-linecap="round" stroke="#000000" />
<g transform="matrix( 0.7    0   -0  0.7  64 1060)" fill="#000000" >
<text stroke="none" font-family="Helvetica" font-size="40" ><tspan x="-58" y="-5">0x0D&#8211;</tspan><tspan x="-58" y="35">0x10</tspan>
</text></g>
<g transform="matrix( 0.7    0   -0  0.7  64 1172)" fill="#000000" >
<text stroke="none" font-family="Helvetica" font-size="40" ><tspan x="-44" y="0">0x11</tspan>
</text></g>
<g transform="matrix( 0.7    0   -0  0.7 440 580)" fill="#000000" >
<text stroke="none" font-family="Helvetica" font-size="40" ><tspan x="-66" y="15">unused</tspan>
</text></g>
<g transform="matrix( 0.7    0   -0  0.7 1016 580)" fill="#000000" >
<text stroke="none" font-family="Helvetica" font-size="40" ><tspan x="-36" y="-5">PLL</tspan><tspan x="-61" y="35">enable</tspan>
</text></g>
<path d="M368,1108 L368,1204 " fill="none" stroke-width="2" stroke-linejoin="bevel" stroke-linecap="round" stroke="#000000" />
<g transform="matrix( 0.7    0   -0  0.7 240 1156)" fill="#000000" >
<text stroke="none" font-family="Helvetica" font-size="40" ><tspan x="-66" y="15">unused</tspan>
</text></g>
<g transform="matrix( 0.7    0   -0  0.7 1168 1156)" fill="#000000" >
<text stroke="none" font-family="Helvetica" font-size="40" ><tspan x="-110" y="15">default 0x12</tspan>
</text></g>
<g transform="matrix( 0.7    0   -0  0.7 1168 1060)" fill="#000000" >
<text stroke="none" font-family="Helvetica" font-size="40" ><tspan x="-61" y="-5">default</tspan><tspan x="-72" y="35">0x3ffefff</tspan>
</text></g>
<path d="M1264,68 L1264,1300 " fill="none" stroke-width="2" stroke-linejoin="bevel" stroke-linecap="round" stroke="#000000" />
<path d="M0,1204 L1264,1204 " fill="none" stroke-width="2" stroke-linejoin="bevel" stroke-linecap="round" stroke="#000000" />
<g transform="matrix( 0.7    0   -0  0.7  64 484)" fill="#000000" >
<text stroke="none" font-family="Helvetica" font-size="40" ><tspan x="-55" y="-6">0x04&#8211;</tspan><tspan x="-55" y="34">0x07</tspan>
</text></g>
<g transform="matrix( 0.7    0   -0  0.7 352 244)" fill="#000000" >
<text stroke="none" font-family="Helvetica" font-size="40" ><tspan x="-66" y="0">unused</tspan>
</text></g>
<g transform="matrix( 0.7    0   -0  0.7 592 484)" fill="#000000" >
<text stroke="none" font-family="Helvetica" font-size="40" ><tspan x="-375" y="15">user_project_ID (unique value per project)</tspan>
</text></g>
<g transform="matrix( 0.7    0   -0  0.7 1168 484)" fill="#000000" >
<text stroke="none" font-family="Helvetica" font-size="40" ><tspan x="-84" y="15">read-only</tspan>
</text></g>
<g transform="matrix( 0.7    0   -0  0.7 368 1252)" fill="#000000" >
<text stroke="none" font-family="Helvetica" font-size="40" ><tspan x="-66" y="15">unused</tspan>
</text></g>
<path d="M528,1204 L528,1300 " fill="none" stroke-width="2" stroke-linejoin="bevel" stroke-linecap="round" stroke="#000000" />
<path d="M720,1108 L720,1204 " fill="none" stroke-width="2" stroke-linejoin="bevel" stroke-linecap="round" stroke="#000000" />
<g transform="matrix( 0.7    0   -0  0.7 1168 1252)" fill="#000000" >
<text stroke="none" font-family="Helvetica" font-size="40" ><tspan x="-110" y="15">default 0x04</tspan>
</text></g>
<g transform="matrix( 0.7    0   -0  0.7 800 1252)" fill="#000000" >
<text stroke="none" font-family="Helvetica" font-size="40" ><tspan x="-188" y="15">PLL feedback divider</tspan>
</text></g>
<g transform="matrix( 0.7    0   -0  0.7 896 1156)" fill="#000000" >
<text stroke="none" font-family="Helvetica" font-size="40" ><tspan x="-162" y="15">PLL output divider</tspan>
</text></g>
<g transform="matrix( 0.7    0   -0  0.7 544 1156)" fill="#000000" >
<text stroke="none" font-family="Helvetica" font-size="40" ><tspan x="-179" y="15">PLL output divider 2</tspan>
</text></g>
<g transform="matrix( 0.7    0   -0  0.7 608 1060)" fill="#000000" >
<text stroke="none" font-family="Helvetica" font-size="40" ><tspan x="-269" y="15">DCO trim (26 bits) (= 0x3ffefff)</tspan>
</text></g>
</g>
</svg>
