<svg xmlns="http://www.w3.org/2000/svg"
   xmlns:xlink="http://www.w3.org/1999/xlink"
   version="1.1"
   id="hkspi2" width="100%" height="100%"  viewBox="-6 -6 1270 1098">
<desc>
XCircuit Version 3.10
File "housekeeping_regmap_2.ps" Page 1
</desc>
<g stroke="black">
<path d="M128,1092 L128,996 952,996 952,1092 z" fill="#e5e5e5" stroke-width="2" stroke-linejoin="bevel" stroke-linecap="round" stroke="#e5e5e5" />
<path d="M128,996 L128,900 608,900 608,996 z" fill="#e5e5e5" stroke-width="2" stroke-linejoin="bevel" stroke-linecap="round" stroke="#e5e5e5" />
<path d="M128,708 L128,612 832,612 832,708 z" fill="#e5e5e5" stroke-width="2" stroke-linejoin="bevel" stroke-linecap="round" stroke="#e5e5e5" />
<path d="M128,516 L128,420 608,420 608,516 z" fill="#e5e5e5" stroke-width="2" stroke-linejoin="bevel" stroke-linecap="round" stroke="#e5e5e5" />
<path d="M128,180 L128,100 240,100 240,180 z" fill="#e5e5e5" stroke-width="2" stroke-linejoin="bevel" stroke-linecap="round" stroke="#e5e5e5" />
<path d="M128,260 L128,180 832,180 832,260 z" fill="#e5e5e5" stroke-width="2" stroke-linejoin="bevel" stroke-linecap="round" stroke="#e5e5e5" />
<path d="M128,612 L128,516 720,516 720,612 z" fill="#e5e5e5" stroke-width="2" stroke-linejoin="bevel" stroke-linecap="round" stroke="#e5e5e5" />
<path d="M0,180 L1264,180 " fill="none" stroke-width="2" stroke-linejoin="bevel" stroke-linecap="round" stroke="#000000" />
<g transform="matrix( 0.7    0   -0  0.7 176  52)" fill="#000000" >
<text stroke="none" font-family="Helvetica"  font-style="oblique" font-size="40" ><tspan x="-38" y="0">msb</tspan>
</text></g>
<g transform="matrix( 0.7    0   -0  0.7 1008  52)" fill="#000000" >
<text stroke="none" font-family="Helvetica"  font-style="oblique" font-size="40" ><tspan x="-26" y="0">lsb</tspan>
</text></g>
<path d="M0,340 L1264,340 " fill="none" stroke-width="2" stroke-linejoin="bevel" stroke-linecap="round" stroke="#000000" />
<path d="M0,52 L0,1092 " fill="none" stroke-width="2" stroke-linejoin="bevel" stroke-linecap="round" stroke="#000000" />
<g transform="matrix( 0.7    0   -0  0.7  64  84)" fill="#000000" >
<text stroke="none" font-family="Helvetica"  font-style="oblique" font-size="40" ><tspan x="-75" y="-40">Register</tspan><tspan x="-75" y="0">Address</tspan>
</text></g>
<path d="M0,100 L1264,100 " fill="none" stroke-width="2" stroke-linejoin="bevel" stroke-linecap="round" stroke="#000000" />
<path d="M0,420 L1264,420 " fill="none" stroke-width="2" stroke-linejoin="bevel" stroke-linecap="round" stroke="#000000" />
<g transform="matrix( 0.7    0   -0  0.7  64 148)" fill="#000000" >
<text stroke="none" font-family="Helvetica" font-size="40" ><tspan x="-44" y="0">0x13</tspan>
</text></g>
<g transform="matrix( 0.7    0   -0  0.7  64 228)" fill="#000000" >
<text stroke="none" font-family="Helvetica" font-size="40" ><tspan x="-44" y="0">0x14</tspan>
</text></g>
<path d="M0,708 L1264,708 " fill="none" stroke-width="2" stroke-linejoin="bevel" stroke-linecap="round" stroke="#000000" />
<path d="M240,68 L240,100 " fill="none" stroke-width="2" stroke-linejoin="bevel" stroke-linecap="round" stroke="#000000" />
<path d="M368,68 L368,100 " fill="none" stroke-width="2" stroke-linejoin="bevel" stroke-linecap="round" stroke="#000000" />
<path d="M496,68 L496,100 " fill="none" stroke-width="2" stroke-linejoin="bevel" stroke-linecap="round" stroke="#000000" />
<path d="M608,68 L608,100 " fill="none" stroke-width="2" stroke-linejoin="bevel" stroke-linecap="round" stroke="#000000" />
<path d="M720,68 L720,100 " fill="none" stroke-width="2" stroke-linejoin="bevel" stroke-linecap="round" stroke="#000000" />
<path d="M832,68 L832,100 " fill="none" stroke-width="2" stroke-linejoin="bevel" stroke-linecap="round" stroke="#000000" />
<path d="M960,68 L960,100 " fill="none" stroke-width="2" stroke-linejoin="bevel" stroke-linecap="round" stroke="#000000" />
<path d="M1072,52 L1072,1092 " fill="none" stroke-width="2" stroke-linejoin="bevel" stroke-linecap="round" stroke="#000000" />
<g transform="matrix( 0.7    0   -0  0.7 176  84)" fill="#000000" >
<text stroke="none" font-family="Helvetica" font-size="40" ><tspan x="0" y="0">7</tspan>
</text></g>
<g transform="matrix( 0.7    0   -0  0.7 288  84)" fill="#000000" >
<text stroke="none" font-family="Helvetica" font-size="40" ><tspan x="0" y="0">6</tspan>
</text></g>
<g transform="matrix( 0.7    0   -0  0.7 416  84)" fill="#000000" >
<text stroke="none" font-family="Helvetica" font-size="40" ><tspan x="0" y="0">5</tspan>
</text></g>
<g transform="matrix( 0.7    0   -0  0.7 544  84)" fill="#000000" >
<text stroke="none" font-family="Helvetica" font-size="40" ><tspan x="0" y="0">4</tspan>
</text></g>
<g transform="matrix( 0.7    0   -0  0.7 656  84)" fill="#000000" >
<text stroke="none" font-family="Helvetica" font-size="40" ><tspan x="0" y="0">3</tspan>
</text></g>
<g transform="matrix( 0.7    0   -0  0.7 768  84)" fill="#000000" >
<text stroke="none" font-family="Helvetica" font-size="40" ><tspan x="0" y="0">2</tspan>
</text></g>
<g transform="matrix( 0.7    0   -0  0.7 880  84)" fill="#000000" >
<text stroke="none" font-family="Helvetica" font-size="40" ><tspan x="0" y="0">1</tspan>
</text></g>
<g transform="matrix( 0.7    0   -0  0.7 1008  84)" fill="#000000" >
<text stroke="none" font-family="Helvetica" font-size="40" ><tspan x="0" y="0">0</tspan>
</text></g>
<g transform="matrix( 0.7    0   -0  0.7 1152  84)" fill="#000000" >
<text stroke="none" font-family="Helvetica"  font-style="oblique" font-size="40" ><tspan x="-93" y="0">comments</tspan>
</text></g>
<path d="M0,804 L1264,804 " fill="none" stroke-width="2" stroke-linejoin="bevel" stroke-linecap="round" stroke="#000000" />
<path d="M0,900 L1264,900 " fill="none" stroke-width="2" stroke-linejoin="bevel" stroke-linecap="round" stroke="#000000" />
<path d="M0,612 L1264,612 " fill="none" stroke-width="2" stroke-linejoin="bevel" stroke-linecap="round" stroke="#000000" />
<path d="M0,516 L1264,516 " fill="none" stroke-width="2" stroke-linejoin="bevel" stroke-linecap="round" stroke="#000000" />
<path d="M0,260 L1264,260 " fill="none" stroke-width="2" stroke-linejoin="bevel" stroke-linecap="round" stroke="#000000" />
<g transform="matrix( 0.7    0   -0  0.7  64 308)" fill="#000000" >
<text stroke="none" font-family="Helvetica" font-size="40" ><tspan x="-44" y="0">0x15</tspan>
</text></g>
<path d="M832,180 L832,260 " fill="none" stroke-width="2" stroke-linejoin="bevel" stroke-linecap="round" stroke="#000000" />
<g transform="matrix( 0.7    0   -0  0.7  64 580)" fill="#000000" >
<text stroke="none" font-family="Helvetica" font-size="40" ><tspan x="-46" y="0">0x1B</tspan>
</text></g>
<g transform="matrix( 0.7    0   -0  0.7  64 676)" fill="#000000" >
<text stroke="none" font-family="Helvetica" font-size="40" ><tspan x="-47" y="0">0x1C</tspan>
</text></g>
<g transform="matrix( 0.7    0   -0  0.7  64 964)" fill="#000000" >
<text stroke="none" font-family="Helvetica" font-size="40" ><tspan x="-46" y="0">0x6E</tspan>
</text></g>
<path d="M128,52 L128,1092 " fill="none" stroke-width="2" stroke-linejoin="bevel" stroke-linecap="round" stroke="#000000" />
<g transform="matrix( 0.7 -1.09102e-11 1.09102e-11  0.7 1168 948)" fill="#000000" >
<text stroke="none" font-family="Helvetica" font-size="40" ><tspan x="-78" y="-5">unused/</tspan><tspan x="-78" y="35">reserved</tspan>
</text></g>
<path d="M952,516 L952,612 " fill="none" stroke-width="2" stroke-linejoin="bevel" stroke-linecap="round" stroke="#000000" />
<path d="M720,516 L720,612 " fill="none" stroke-width="2" stroke-linejoin="bevel" stroke-linecap="round" stroke="#000000" />
<path d="M952,612 L952,708 " fill="none" stroke-width="2" stroke-linejoin="bevel" stroke-linecap="round" stroke="#000000" />
<g transform="matrix( 0.7    0   -0  0.7 472 660)" fill="#000000" >
<text stroke="none" font-family="Helvetica" font-size="40" ><tspan x="-66" y="15">unused</tspan>
</text></g>
<g transform="matrix( 0.7    0   -0  0.7 1168 756)" fill="#000000" >
<text stroke="none" font-family="Helvetica" font-size="40" ><tspan x="-110" y="15">default 0x00</tspan>
</text></g>
<g transform="matrix( 0.7    0   -0  0.7 1168 852)" fill="#000000" >
<text stroke="none" font-family="Helvetica" font-size="40" ><tspan x="-110" y="15">default 0x00</tspan>
</text></g>
<g transform="matrix( 0.7    0   -0  0.7 288  20)" fill="#000000" >
<text stroke="none" font-family="Helvetica"  font-style="oblique" font-size="40" ><tspan x="0" y="0">Table 9</tspan>
</text></g>
<g transform="matrix( 0.7    0   -0  0.7 448  20)" fill="#000000" >
<text stroke="none" font-family="Helvetica"  font-weight="bold" font-size="40" ><tspan x="0" y="0">Housekeeping SPI register map (cont.)</tspan>
</text></g>
<path d="M0,996 L1264,996 " fill="none" stroke-width="2" stroke-linejoin="bevel" stroke-linecap="round" stroke="#000000" />
<path d="M0,1092 L1264,1092 " fill="none" stroke-width="2" stroke-linejoin="bevel" stroke-linecap="round" stroke="#000000" />
<g transform="matrix( 0.7    0   -0  0.7 424 564)" fill="#000000" >
<text stroke="none" font-family="Helvetica" font-size="40" ><tspan x="-66" y="15">unused</tspan>
</text></g>
<path d="M1264,52 L1264,1092 " fill="none" stroke-width="2" stroke-linejoin="bevel" stroke-linecap="round" stroke="#000000" />
<g transform="matrix( 0.7    0   -0  0.7 496 228)" fill="#000000" >
<text stroke="none" font-family="Helvetica" font-size="40" ><tspan x="-66" y="0">unused</tspan>
</text></g>
<g transform="matrix( 0.7    0   -0  0.7 1168 468)" fill="#000000" >
<text stroke="none" font-family="Helvetica" font-size="40" ><tspan x="-84" y="15">read-only</tspan>
</text></g>
<path d="M240,100 L240,180 " fill="none" stroke-width="2" stroke-linejoin="bevel" stroke-linecap="round" stroke="#000000" />
<path d="M368,100 L368,180 " fill="none" stroke-width="2" stroke-linejoin="bevel" stroke-linecap="round" stroke="#000000" />
<path d="M496,100 L496,180 " fill="none" stroke-width="2" stroke-linejoin="bevel" stroke-linecap="round" stroke="#000000" />
<path d="M608,100 L608,180 " fill="none" stroke-width="2" stroke-linejoin="bevel" stroke-linecap="round" stroke="#000000" />
<path d="M720,100 L720,180 " fill="none" stroke-width="2" stroke-linejoin="bevel" stroke-linecap="round" stroke="#000000" />
<path d="M832,100 L832,180 " fill="none" stroke-width="2" stroke-linejoin="bevel" stroke-linecap="round" stroke="#000000" />
<path d="M960,100 L960,180 " fill="none" stroke-width="2" stroke-linejoin="bevel" stroke-linecap="round" stroke="#000000" />
<g transform="matrix( 0.7    0   -0  0.7 1168 148)" fill="#000000" >
<text stroke="none" font-family="Helvetica" font-size="40" ><tspan x="-110" y="0">default 0x00</tspan>
</text></g>
<g transform="matrix( 0.7    0   -0  0.7 304 164)" fill="#000000" >
<text stroke="none" font-family="Helvetica" font-size="40" ><tspan x="-48" y="-40">serial</tspan><tspan x="-56" y="0">data 2</tspan>
</text></g>
<g transform="matrix( 0.7    0   -0  0.7 432 164)" fill="#000000" >
<text stroke="none" font-family="Helvetica" font-size="40" ><tspan x="-48" y="-40">serial</tspan><tspan x="-56" y="0">data 1</tspan>
</text></g>
<g transform="matrix( 0.7    0   -0  0.7 544 164)" fill="#000000" >
<text stroke="none" font-family="Helvetica" font-size="40" ><tspan x="-48" y="-40">serial</tspan><tspan x="-45" y="0">clock</tspan>
</text></g>
<g transform="matrix( 0.7    0   -0  0.7 656 164)" fill="#000000" >
<text stroke="none" font-family="Helvetica" font-size="40" ><tspan x="-48" y="-40">serial</tspan><tspan x="-38" y="0">load</tspan>
</text></g>
<g transform="matrix( 0.7    0   -0  0.7 768 164)" fill="#000000" >
<text stroke="none" font-family="Helvetica" font-size="40" ><tspan x="-48" y="-40">serial</tspan><tspan x="-56" y="0">resetn</tspan>
</text></g>
<g transform="matrix( 0.7    0   -0  0.7 896 164)" fill="#000000" >
<text stroke="none" font-family="Helvetica" font-size="40" ><tspan x="-48" y="-40">serial</tspan><tspan x="-61" y="0">enable</tspan>
</text></g>
<g transform="matrix( 0.7    0   -0  0.7 1008 164)" fill="#000000" >
<text stroke="none" font-family="Helvetica" font-size="40" ><tspan x="-48" y="-40">serial</tspan><tspan x="-33" y="0">xfer</tspan>
</text></g>
<g transform="matrix( 0.7    0   -0  0.7 184 148)" fill="#000000" >
<text stroke="none" font-family="Helvetica" font-size="40" ><tspan x="-66" y="0">unused</tspan>
</text></g>
<path d="M960,180 L960,260 " fill="none" stroke-width="2" stroke-linejoin="bevel" stroke-linecap="round" stroke="#000000" />
<g transform="matrix( 0.7    0   -0  0.7 896 244)" fill="#000000" >
<text stroke="none" font-family="Helvetica" font-size="40" ><tspan x="-58" y="-40">SRAM</tspan><tspan x="-69" y="0">ro clock</tspan>
</text></g>
<g transform="matrix( 0.7    0   -0  0.7 1016 244)" fill="#000000" >
<text stroke="none" font-family="Helvetica" font-size="40" ><tspan x="-58" y="-40">SRAM</tspan><tspan x="-54" y="0">ro csb</tspan>
</text></g>
<g transform="matrix( 0.7    0   -0  0.7 1168 220)" fill="#000000" >
<text stroke="none" font-family="Helvetica" font-size="40" ><tspan x="-110" y="15">default 0x00</tspan>
</text></g>
<g transform="matrix( 0.7    0   -0  0.7 616 324)" fill="#000000" >
<text stroke="none" font-family="Helvetica" font-size="40" ><tspan x="-58" y="-40">SRAM</tspan><tspan x="-95" y="0">ro address</tspan>
</text></g>
<g transform="matrix( 0.7    0   -0  0.7  72 380)" fill="#000000" >
<text stroke="none" font-family="Helvetica" font-size="40" ><tspan x="-55" y="-6">0x16&#8211;</tspan><tspan x="-55" y="34">0x19</tspan>
</text></g>
<g transform="matrix( 0.7    0   -0  0.7 616 404)" fill="#000000" >
<text stroke="none" font-family="Helvetica" font-size="40" ><tspan x="-58" y="-40">SRAM</tspan><tspan x="-141" y="0">ro data (32 bits)</tspan>
</text></g>
<g transform="matrix( 0.7    0   -0  0.7  64 484)" fill="#000000" >
<text stroke="none" font-family="Helvetica" font-size="40" ><tspan x="-46" y="0">0x1A</tspan>
</text></g>
<g transform="matrix( 0.7    0   -0  0.7 1168 300)" fill="#000000" >
<text stroke="none" font-family="Helvetica" font-size="40" ><tspan x="-110" y="15">default 0x00</tspan>
</text></g>
<g transform="matrix( 0.7    0   -0  0.7 1168 380)" fill="#000000" >
<text stroke="none" font-family="Helvetica" font-size="40" ><tspan x="-110" y="15">default 0x00</tspan>
</text></g>
<path d="M608,420 L608,516 " fill="none" stroke-width="2" stroke-linejoin="bevel" stroke-linecap="round" stroke="#000000" />
<path d="M720,420 L720,516 " fill="none" stroke-width="2" stroke-linejoin="bevel" stroke-linecap="round" stroke="#000000" />
<path d="M832,420 L832,516 " fill="none" stroke-width="2" stroke-linejoin="bevel" stroke-linecap="round" stroke="#000000" />
<path d="M952,420 L952,516 " fill="none" stroke-width="2" stroke-linejoin="bevel" stroke-linecap="round" stroke="#000000" />
<g transform="matrix( 0.7    0   -0  0.7 384 468)" fill="#000000" >
<text stroke="none" font-family="Helvetica" font-size="40" ><tspan x="-66" y="15">unused</tspan>
</text></g>
<g transform="matrix( 0.7    0   -0  0.7 664 468)" fill="#000000" >
<text stroke="none" font-family="Helvetica" font-size="40" ><tspan x="-50" y="-26">user1</tspan><tspan x="-41" y="14">vccd</tspan><tspan x="-45" y="54">good</tspan>
</text></g>
<g transform="matrix( 0.7    0   -0  0.7 776 468)" fill="#000000" >
<text stroke="none" font-family="Helvetica" font-size="40" ><tspan x="-50" y="-26">user2</tspan><tspan x="-41" y="14">vccd</tspan><tspan x="-45" y="54">good</tspan>
</text></g>
<g transform="matrix( 0.7    0   -0  0.7 888 468)" fill="#000000" >
<text stroke="none" font-family="Helvetica" font-size="40" ><tspan x="-50" y="-26">user1</tspan><tspan x="-43" y="14">vdda</tspan><tspan x="-45" y="54">good</tspan>
</text></g>
<g transform="matrix( 0.7    0   -0  0.7 1016 468)" fill="#000000" >
<text stroke="none" font-family="Helvetica" font-size="40" ><tspan x="-50" y="-26">user2</tspan><tspan x="-43" y="14">vdda</tspan><tspan x="-45" y="54">good</tspan>
</text></g>
<path d="M832,516 L832,612 " fill="none" stroke-width="2" stroke-linejoin="bevel" stroke-linecap="round" stroke="#000000" />
<g transform="matrix( 0.7    0   -0  0.7 768 564)" fill="#000000" >
<text stroke="none" font-family="Helvetica" font-size="40" ><tspan x="-35" y="-25">clk1</tspan><tspan x="-56" y="15">output</tspan><tspan x="-38" y="55">dest</tspan>
</text></g>
<g transform="matrix( 0.7    0   -0  0.7 896 564)" fill="#000000" >
<text stroke="none" font-family="Helvetica" font-size="40" ><tspan x="-35" y="-25">clk2</tspan><tspan x="-56" y="15">output</tspan><tspan x="-38" y="55">dest</tspan>
</text></g>
<g transform="matrix( 0.7    0   -0  0.7 1016 564)" fill="#000000" >
<text stroke="none" font-family="Helvetica" font-size="40" ><tspan x="-34" y="-27">trap</tspan><tspan x="-56" y="13">output</tspan><tspan x="-38" y="53">dest</tspan>
</text></g>
<g transform="matrix( 0.7    0   -0  0.7 1160 564)" fill="#000000" >
<text stroke="none" font-family="Helvetica" font-size="40" ><tspan x="-110" y="15">default 0x00</tspan>
</text></g>
<path d="M832,612 L832,708 " fill="none" stroke-width="2" stroke-linejoin="bevel" stroke-linecap="round" stroke="#000000" />
<g transform="matrix( 0.7    0   -0  0.7 888 660)" fill="#000000" >
<text stroke="none" font-family="Helvetica" font-size="40" ><tspan x="-39" y="-5">irq 2</tspan><tspan x="-60" y="35">source</tspan>
</text></g>
<g transform="matrix( 0.7    0   -0  0.7 1008 660)" fill="#000000" >
<text stroke="none" font-family="Helvetica" font-size="40" ><tspan x="-39" y="-5">irq 1</tspan><tspan x="-60" y="35">source</tspan>
</text></g>
<g transform="matrix( 0.7    0   -0  0.7 1168 660)" fill="#000000" >
<text stroke="none" font-family="Helvetica" font-size="40" ><tspan x="-110" y="15">default 0x00</tspan>
</text></g>
<g transform="matrix( 0.7    0   -0  0.7  72 756)" fill="#000000" >
<text stroke="none" font-family="Helvetica" font-size="40" ><tspan x="-58" y="-5">0x1D&#8211;</tspan><tspan x="-58" y="35">0x68</tspan>
</text></g>
<g transform="matrix( 0.7    0   -0  0.7 600 756)" fill="#000000" >
<text stroke="none" font-family="Helvetica" font-size="40" ><tspan x="-497" y="15">gpio configuration[0&#8211;37][12:0]  (2 registers/13 bits each)</tspan>
</text></g>
<g transform="matrix( 0.7    0   -0  0.7  72 852)" fill="#000000" >
<text stroke="none" font-family="Helvetica" font-size="40" ><tspan x="-55" y="-6">0x69&#8211;</tspan><tspan x="-55" y="34">0x6D</tspan>
</text></g>
<g transform="matrix( 0.7    0   -0  0.7 592 852)" fill="#000000" >
<text stroke="none" font-family="Helvetica" font-size="40" ><tspan x="-395" y="15">management GPIO data (5 registers/38 bits)</tspan>
</text></g>
<path d="M608,900 L608,996 " fill="none" stroke-width="2" stroke-linejoin="bevel" stroke-linecap="round" stroke="#000000" />
<g transform="matrix( 0.7    0   -0  0.7 376 948)" fill="#000000" >
<text stroke="none" font-family="Helvetica" font-size="40" ><tspan x="-66" y="15">unused</tspan>
</text></g>
<g transform="matrix( 0.7    0   -0  0.7 816 948)" fill="#000000" >
<text stroke="none" font-family="Helvetica" font-size="40" ><tspan x="-121" y="15">power control</tspan>
</text></g>
<g transform="matrix( 0.7    0   -0  0.7  64 1060)" fill="#000000" >
<text stroke="none" font-family="Helvetica" font-size="40" ><tspan x="-45" y="0">0x6F</tspan>
</text></g>
<path d="M952,996 L952,1092 " fill="none" stroke-width="2" stroke-linejoin="bevel" stroke-linecap="round" stroke="#000000" />
<g transform="matrix( 0.7    0   -0  0.7 512 1044)" fill="#000000" >
<text stroke="none" font-family="Helvetica" font-size="40" ><tspan x="-66" y="15">unused</tspan>
</text></g>
<g transform="matrix( 0.7    0   -0  0.7 1008 1044)" fill="#000000" >
<text stroke="none" font-family="Helvetica" font-size="40" ><tspan x="-62" y="-25">house-</tspan><tspan x="-71" y="15">keeping</tspan><tspan x="-64" y="55">disable</tspan>
</text></g>
<g transform="matrix( 0.7    0   -0  0.7 1160 1044)" fill="#000000" >
<text stroke="none" font-family="Helvetica" font-size="40" ><tspan x="-110" y="15">default 0x00</tspan>
</text></g>
</g>
</svg>
