<svg xmlns="http://www.w3.org/2000/svg"
   xmlns:xlink="http://www.w3.org/1999/xlink"
   version="1.1"
   id="pcb_example_route_pattern" width="100%" height="100%"  viewBox="-6 -6 4212 5044">
<desc>
XCircuit Version 3.10
File "pcb_example_route_pattern.ps" Page 31
</desc>
<g stroke="black">
<g transform="matrix(1.75    0   -0 1.75 1952  51)" fill="#0000ff" >
<text stroke="none" font-family="Helvetica" font-size="40" ><tspan x="-242" y="0">PCB example route pattern</tspan>
</text></g>
<ellipse cx="1920" cy="2723" rx="128" ry="128" fill="none" stroke-width="2" stroke-linejoin="bevel" stroke-linecap="round" stroke="#999999" />
<g transform="matrix(1.75    0   -0 1.75 1952 131)" fill="#0000ff" >
<text stroke="none" font-family="Helvetica" font-size="40" ><tspan x="-377" y="0">Via in center connects center ground pads</tspan>
</text></g>
<ellipse cx="1744" cy="2547" rx="112" ry="112" fill="#a020f0" stroke-width="2" stroke-linejoin="bevel" stroke-linecap="round" stroke="#a020f0" />
<ellipse cx="2096" cy="2547" rx="112" ry="112" fill="#a020f0" stroke-width="2" stroke-linejoin="bevel" stroke-linecap="round" stroke="#a020f0" />
<ellipse cx="2096" cy="2899" rx="112" ry="112" fill="#a020f0" stroke-width="2" stroke-linejoin="bevel" stroke-linecap="round" stroke="#a020f0" />
<ellipse cx="1744" cy="2899" rx="112" ry="112" fill="#a020f0" stroke-width="2" stroke-linejoin="bevel" stroke-linecap="round" stroke="#a020f0" />
<ellipse cx="1744" cy="2195" rx="112" ry="112" fill="#cd0000" stroke-width="2" stroke-linejoin="bevel" stroke-linecap="round" stroke="#cd0000" />
<ellipse cx="2096" cy="2195" rx="112" ry="112" fill="#cd0000" stroke-width="2" stroke-linejoin="bevel" stroke-linecap="round" stroke="#cd0000" />
<ellipse cx="2448" cy="1843" rx="112" ry="112" fill="#a020f0" stroke-width="2" stroke-linejoin="bevel" stroke-linecap="round" stroke="#a020f0" />
<ellipse cx="1040" cy="1491" rx="112" ry="112" fill="#cd0000" stroke-width="2" stroke-linejoin="bevel" stroke-linecap="round" stroke="#cd0000" />
<ellipse cx="2800" cy="1491" rx="112" ry="112" fill="#cd0000" stroke-width="2" stroke-linejoin="bevel" stroke-linecap="round" stroke="#cd0000" />
<ellipse cx="1392" cy="2899" rx="112" ry="112" fill="#a020f0" stroke-width="2" stroke-linejoin="bevel" stroke-linecap="round" stroke="#a020f0" />
<ellipse cx="1040" cy="2899" rx="112" ry="112" fill="#a020f0" stroke-width="2" stroke-linejoin="bevel" stroke-linecap="round" stroke="#a020f0" />
<ellipse cx="2800" cy="4307" rx="112" ry="112" fill="#cd0000" stroke-width="2" stroke-linejoin="bevel" stroke-linecap="round" stroke="#cd0000" />
<ellipse cx="1040" cy="4307" rx="112" ry="112" fill="#cd0000" stroke-width="2" stroke-linejoin="bevel" stroke-linecap="round" stroke="#cd0000" />
<ellipse cx="2448" cy="3251" rx="112" ry="112" fill="#a020f0" stroke-width="2" stroke-linejoin="bevel" stroke-linecap="round" stroke="#a020f0" />
<ellipse cx="2096" cy="3251" rx="112" ry="112" fill="#cd0000" stroke-width="2" stroke-linejoin="bevel" stroke-linecap="round" stroke="#cd0000" />
<ellipse cx="2800" cy="4307" rx="112" ry="112" fill="none" stroke-width="2" stroke-linejoin="bevel" stroke-linecap="round" stroke="#000000" />
<ellipse cx="1040" cy="4307" rx="112" ry="112" fill="none" stroke-width="2" stroke-linejoin="bevel" stroke-linecap="round" stroke="#000000" />
<ellipse cx="2096" cy="3251" rx="112" ry="112" fill="none" stroke-width="2" stroke-linejoin="bevel" stroke-linecap="round" stroke="#000000" />
<ellipse cx="2448" cy="3251" rx="112" ry="112" fill="none" stroke-width="2" stroke-linejoin="bevel" stroke-linecap="round" stroke="#000000" />
<ellipse cx="1744" cy="2899" rx="112" ry="112" fill="none" stroke-width="2" stroke-linejoin="bevel" stroke-linecap="round" stroke="#000000" />
<ellipse cx="2096" cy="2899" rx="112" ry="112" fill="none" stroke-width="2" stroke-linejoin="bevel" stroke-linecap="round" stroke="#000000" />
<ellipse cx="1040" cy="2899" rx="112" ry="112" fill="none" stroke-width="2" stroke-linejoin="bevel" stroke-linecap="round" stroke="#000000" />
<ellipse cx="1392" cy="2899" rx="112" ry="112" fill="none" stroke-width="2" stroke-linejoin="bevel" stroke-linecap="round" stroke="#000000" />
<ellipse cx="2096" cy="2547" rx="112" ry="112" fill="none" stroke-width="2" stroke-linejoin="bevel" stroke-linecap="round" stroke="#000000" />
<ellipse cx="1744" cy="2547" rx="112" ry="112" fill="none" stroke-width="2" stroke-linejoin="bevel" stroke-linecap="round" stroke="#000000" />
<ellipse cx="1920" cy="2723" rx="240" ry="240" fill="none" stroke-width="2" stroke-linejoin="bevel" stroke-linecap="round" stroke="#999999" />
<ellipse cx="2096" cy="2195" rx="112" ry="112" fill="none" stroke-width="2" stroke-linejoin="bevel" stroke-linecap="round" stroke="#000000" />
<ellipse cx="1744" cy="2195" rx="112" ry="112" fill="none" stroke-width="2" stroke-linejoin="bevel" stroke-linecap="round" stroke="#000000" />
<ellipse cx="2448" cy="1843" rx="112" ry="112" fill="none" stroke-width="2" stroke-linejoin="bevel" stroke-linecap="round" stroke="#000000" />
<ellipse cx="1040" cy="1491" rx="112" ry="112" fill="none" stroke-width="2" stroke-linejoin="bevel" stroke-linecap="round" stroke="#000000" />
<ellipse cx="2800" cy="1491" rx="112" ry="112" fill="none" stroke-width="2" stroke-linejoin="bevel" stroke-linecap="round" stroke="#000000" />
<path d="M784,1491 L1040,1491 " fill="none" stroke-width="2" stroke-linejoin="bevel" stroke-linecap="round" stroke="#000000" />
<path d="M2800,1491 L3056,1491 " fill="none" stroke-width="2" stroke-linejoin="bevel" stroke-linecap="round" stroke="#000000" />
<ellipse cx="2784" cy="2899" rx="112" ry="112" fill="none" stroke-width="2" stroke-linejoin="bevel" stroke-linecap="round" stroke="#000000" />
<path d="M1040,4307 L816,4531 " fill="none" stroke-width="2" stroke-linejoin="bevel" stroke-linecap="round" stroke="#000000" />
<path d="M2800,4307 L3024,4531 " fill="none" stroke-width="2" stroke-linejoin="bevel" stroke-linecap="round" stroke="#000000" />
<path d="M816,1683 L1136,1683 1200,1747 1200,1907 1296,2003 1552,2003 1744,2195 " fill="none" stroke-width="2" stroke-linejoin="bevel" stroke-linecap="round" stroke="#000000" />
<path d="M2096,2195 L2256,2035 3056,2035 " fill="none" stroke-width="2" stroke-linejoin="bevel" stroke-linecap="round" stroke="#000000" />
<ellipse cx="1040" cy="3955" rx="112" ry="112" fill="#999999" stroke-width="2" stroke-linejoin="bevel" stroke-linecap="round" stroke="#999999" />
<ellipse cx="1040" cy="3603" rx="112" ry="112" fill="#999999" stroke-width="2" stroke-linejoin="bevel" stroke-linecap="round" stroke="#999999" />
<ellipse cx="1392" cy="3603" rx="112" ry="112" fill="#999999" stroke-width="2" stroke-linejoin="bevel" stroke-linecap="round" stroke="#999999" />
<ellipse cx="1392" cy="3955" rx="112" ry="112" fill="#999999" stroke-width="2" stroke-linejoin="bevel" stroke-linecap="round" stroke="#999999" />
<ellipse cx="1392" cy="4307" rx="112" ry="112" fill="#999999" stroke-width="2" stroke-linejoin="bevel" stroke-linecap="round" stroke="#999999" />
<ellipse cx="1744" cy="4307" rx="112" ry="112" fill="#999999" stroke-width="2" stroke-linejoin="bevel" stroke-linecap="round" stroke="#999999" />
<ellipse cx="1744" cy="3955" rx="112" ry="112" fill="#999999" stroke-width="2" stroke-linejoin="bevel" stroke-linecap="round" stroke="#999999" />
<ellipse cx="1744" cy="3603" rx="112" ry="112" fill="#999999" stroke-width="2" stroke-linejoin="bevel" stroke-linecap="round" stroke="#999999" />
<ellipse cx="2096" cy="3603" rx="112" ry="112" fill="#999999" stroke-width="2" stroke-linejoin="bevel" stroke-linecap="round" stroke="#999999" />
<ellipse cx="2096" cy="3955" rx="112" ry="112" fill="#999999" stroke-width="2" stroke-linejoin="bevel" stroke-linecap="round" stroke="#999999" />
<ellipse cx="2096" cy="4307" rx="112" ry="112" fill="#999999" stroke-width="2" stroke-linejoin="bevel" stroke-linecap="round" stroke="#999999" />
<ellipse cx="2448" cy="4307" rx="112" ry="112" fill="#999999" stroke-width="2" stroke-linejoin="bevel" stroke-linecap="round" stroke="#999999" />
<ellipse cx="2448" cy="3955" rx="112" ry="112" fill="#999999" stroke-width="2" stroke-linejoin="bevel" stroke-linecap="round" stroke="#999999" />
<ellipse cx="2800" cy="3955" rx="112" ry="112" fill="#999999" stroke-width="2" stroke-linejoin="bevel" stroke-linecap="round" stroke="#999999" />
<ellipse cx="2800" cy="3603" rx="112" ry="112" fill="#999999" stroke-width="2" stroke-linejoin="bevel" stroke-linecap="round" stroke="#999999" />
<ellipse cx="2800" cy="3251" rx="112" ry="112" fill="#999999" stroke-width="2" stroke-linejoin="bevel" stroke-linecap="round" stroke="#999999" />
<ellipse cx="1392" cy="3251" rx="112" ry="112" fill="#999999" stroke-width="2" stroke-linejoin="bevel" stroke-linecap="round" stroke="#999999" />
<ellipse cx="2448" cy="3603" rx="112" ry="112" fill="#999999" stroke-width="2" stroke-linejoin="bevel" stroke-linecap="round" stroke="#999999" />
<ellipse cx="1744" cy="3251" rx="112" ry="112" fill="#999999" stroke-width="2" stroke-linejoin="bevel" stroke-linecap="round" stroke="#999999" />
<ellipse cx="1040" cy="3251" rx="112" ry="112" fill="#999999" stroke-width="2" stroke-linejoin="bevel" stroke-linecap="round" stroke="#999999" />
<ellipse cx="2432" cy="2899" rx="112" ry="112" fill="#999999" stroke-width="2" stroke-linejoin="bevel" stroke-linecap="round" stroke="#999999" />
<ellipse cx="2784" cy="2899" rx="112" ry="112" fill="#999999" stroke-width="2" stroke-linejoin="bevel" stroke-linecap="round" stroke="#999999" />
<ellipse cx="1392" cy="2547" rx="112" ry="112" fill="#999999" stroke-width="2" stroke-linejoin="bevel" stroke-linecap="round" stroke="#999999" />
<ellipse cx="1040" cy="2547" rx="112" ry="112" fill="#999999" stroke-width="2" stroke-linejoin="bevel" stroke-linecap="round" stroke="#999999" />
<ellipse cx="1040" cy="2195" rx="112" ry="112" fill="#999999" stroke-width="2" stroke-linejoin="bevel" stroke-linecap="round" stroke="#999999" />
<ellipse cx="1392" cy="2195" rx="112" ry="112" fill="#999999" stroke-width="2" stroke-linejoin="bevel" stroke-linecap="round" stroke="#999999" />
<ellipse cx="1040" cy="1843" rx="112" ry="112" fill="#999999" stroke-width="2" stroke-linejoin="bevel" stroke-linecap="round" stroke="#999999" />
<ellipse cx="1040" cy="1139" rx="112" ry="112" fill="#999999" stroke-width="2" stroke-linejoin="bevel" stroke-linecap="round" stroke="#999999" />
<ellipse cx="1392" cy="1139" rx="112" ry="112" fill="#999999" stroke-width="2" stroke-linejoin="bevel" stroke-linecap="round" stroke="#999999" />
<ellipse cx="1392" cy="1491" rx="112" ry="112" fill="#999999" stroke-width="2" stroke-linejoin="bevel" stroke-linecap="round" stroke="#999999" />
<ellipse cx="1744" cy="1139" rx="112" ry="112" fill="#999999" stroke-width="2" stroke-linejoin="bevel" stroke-linecap="round" stroke="#999999" />
<ellipse cx="1744" cy="1491" rx="112" ry="112" fill="#999999" stroke-width="2" stroke-linejoin="bevel" stroke-linecap="round" stroke="#999999" />
<ellipse cx="1744" cy="1843" rx="112" ry="112" fill="#999999" stroke-width="2" stroke-linejoin="bevel" stroke-linecap="round" stroke="#999999" />
<ellipse cx="2096" cy="1843" rx="112" ry="112" fill="#999999" stroke-width="2" stroke-linejoin="bevel" stroke-linecap="round" stroke="#999999" />
<ellipse cx="2096" cy="1491" rx="112" ry="112" fill="#999999" stroke-width="2" stroke-linejoin="bevel" stroke-linecap="round" stroke="#999999" />
<ellipse cx="2448" cy="1491" rx="112" ry="112" fill="#999999" stroke-width="2" stroke-linejoin="bevel" stroke-linecap="round" stroke="#999999" />
<ellipse cx="1392" cy="1843" rx="112" ry="112" fill="#999999" stroke-width="2" stroke-linejoin="bevel" stroke-linecap="round" stroke="#999999" />
<ellipse cx="2448" cy="2195" rx="112" ry="112" fill="#999999" stroke-width="2" stroke-linejoin="bevel" stroke-linecap="round" stroke="#999999" />
<ellipse cx="2448" cy="2547" rx="112" ry="112" fill="#999999" stroke-width="2" stroke-linejoin="bevel" stroke-linecap="round" stroke="#999999" />
<ellipse cx="2800" cy="2547" rx="112" ry="112" fill="#999999" stroke-width="2" stroke-linejoin="bevel" stroke-linecap="round" stroke="#999999" />
<ellipse cx="2800" cy="2195" rx="112" ry="112" fill="#999999" stroke-width="2" stroke-linejoin="bevel" stroke-linecap="round" stroke="#999999" />
<ellipse cx="2800" cy="1843" rx="112" ry="112" fill="#999999" stroke-width="2" stroke-linejoin="bevel" stroke-linecap="round" stroke="#999999" />
<ellipse cx="2448" cy="1139" rx="112" ry="112" fill="#999999" stroke-width="2" stroke-linejoin="bevel" stroke-linecap="round" stroke="#999999" />
<ellipse cx="2096" cy="1139" rx="112" ry="112" fill="#999999" stroke-width="2" stroke-linejoin="bevel" stroke-linecap="round" stroke="#999999" />
<ellipse cx="3776" cy="2051" rx="80" ry="80" fill="#999999" stroke-width="2" stroke-linejoin="bevel" stroke-linecap="round" stroke="#999999" />
<ellipse cx="3776" cy="2275" rx="81" ry="81" fill="#cd0000" stroke-width="2" stroke-linejoin="bevel" stroke-linecap="round" stroke="#cd0000" />
<ellipse cx="3776" cy="2499" rx="80" ry="80" fill="#a020f0" stroke-width="2" stroke-linejoin="bevel" stroke-linecap="round" stroke="#a020f0" />
<ellipse cx="3776" cy="2499" rx="80" ry="80" fill="none" stroke-width="2" stroke-linejoin="bevel" stroke-linecap="round" stroke="#000000" />
<ellipse cx="3776" cy="2275" rx="80" ry="80" fill="none" stroke-width="2" stroke-linejoin="bevel" stroke-linecap="round" stroke="#000000" />
<ellipse cx="3776" cy="2051" rx="80" ry="80" fill="none" stroke-width="2" stroke-linejoin="bevel" stroke-linecap="round" stroke="#000000" />
<g transform="matrix( 1.2    0   -0  1.2 3936 2051)" fill="#000000" >
<text stroke="none" font-family="Helvetica" font-size="40" ><tspan x="0" y="15">Signal pad</tspan>
</text></g>
<g transform="matrix( 1.2    0   -0  1.2 3936 2275)" fill="#000000" >
<text stroke="none" font-family="Helvetica" font-size="40" ><tspan x="0" y="15">Power pad</tspan>
</text></g>
<g transform="matrix( 1.2    0   -0  1.2 3952 2499)" fill="#000000" >
<text stroke="none" font-family="Helvetica" font-size="40" ><tspan x="0" y="15">Ground pad</tspan>
</text></g>
<ellipse cx="3792" cy="2803" rx="64" ry="64" fill="none" stroke-width="2" stroke-linejoin="bevel" stroke-linecap="round" stroke="#999999" />
<ellipse cx="3792" cy="2803" rx="128" ry="128" fill="none" stroke-width="2" stroke-linejoin="bevel" stroke-linecap="round" stroke="#999999" />
<g transform="matrix( 1.2    0   -0  1.2 3972 2794)" fill="#000000" >
<text stroke="none" font-family="Helvetica" font-size="40" ><tspan x="0" y="15">PCB via</tspan>
</text></g>
<path d="M2448,1491 L2608,1331 2608,755 " fill="none" stroke-width="2" stroke-linejoin="bevel" stroke-linecap="round" stroke="#000000" />
<path d="M2448,1139 L2448,755 " fill="none" stroke-width="2" stroke-linejoin="bevel" stroke-linecap="round" stroke="#000000" />
<path d="M2096,1491 L2256,1331 2256,755 " fill="none" stroke-width="2" stroke-linejoin="bevel" stroke-linecap="round" stroke="#000000" />
<path d="M2096,1139 L2096,755 " fill="none" stroke-width="2" stroke-linejoin="bevel" stroke-linecap="round" stroke="#000000" />
<path d="M1744,1491 L1904,1331 1904,755 " fill="none" stroke-width="2" stroke-linejoin="bevel" stroke-linecap="round" stroke="#000000" />
<path d="M1744,1139 L1744,755 " fill="none" stroke-width="2" stroke-linejoin="bevel" stroke-linecap="round" stroke="#000000" />
<path d="M1552,755 L1552,1651 1744,1843 " fill="none" stroke-width="2" stroke-linejoin="bevel" stroke-linecap="round" stroke="#000000" />
<path d="M1392,1139 L1392,755 " fill="none" stroke-width="2" stroke-linejoin="bevel" stroke-linecap="round" stroke="#000000" />
<path d="M1392,1491 L1232,1331 1232,755 " fill="none" stroke-width="2" stroke-linejoin="bevel" stroke-linecap="round" stroke="#000000" />
<path d="M2448,1843 L2608,1683 3056,1683 " fill="none" stroke-width="2" stroke-linejoin="bevel" stroke-linecap="round" stroke="#000000" />
<path d="M2096,1843 L2256,1683 2512,1683 2608,1587 2608,1427 2704,1331 3056,1331 " fill="none" stroke-width="2" stroke-linejoin="bevel" stroke-linecap="round" stroke="#000000" />
<path d="M2800,1843 L3056,1843 " fill="none" stroke-width="2" stroke-linejoin="bevel" stroke-linecap="round" stroke="#000000" />
<path d="M2800,2195 L3056,2195 " fill="none" stroke-width="2" stroke-linejoin="bevel" stroke-linecap="round" stroke="#000000" />
<path d="M2448,2195 L2608,2355 3056,2355 " fill="none" stroke-width="2" stroke-linejoin="bevel" stroke-linecap="round" stroke="#000000" />
<path d="M2800,2547 L3056,2547 " fill="none" stroke-width="2" stroke-linejoin="bevel" stroke-linecap="round" stroke="#000000" />
<path d="M2800,3251 L3056,3251 " fill="none" stroke-width="2" stroke-linejoin="bevel" stroke-linecap="round" stroke="#000000" />
<path d="M2448,3251 L2608,3411 3056,3411 " fill="none" stroke-width="2" stroke-linejoin="bevel" stroke-linecap="round" stroke="#000000" />
<path d="M2800,3603 L3056,3603 " fill="none" stroke-width="2" stroke-linejoin="bevel" stroke-linecap="round" stroke="#000000" />
<path d="M2448,2547 L2608,2707 3056,2707 " fill="none" stroke-width="2" stroke-linejoin="bevel" stroke-linecap="round" stroke="#000000" />
<path d="M2448,3603 L2640,3763 3056,3763 " fill="none" stroke-width="2" stroke-linejoin="bevel" stroke-linecap="round" stroke="#000000" />
<path d="M2800,3955 L3056,3955 " fill="none" stroke-width="2" stroke-linejoin="bevel" stroke-linecap="round" stroke="#000000" />
<path d="M2096,3603 L2256,3763 2512,3763 2608,3859 2608,4019 2704,4115 3024,4115 " fill="none" stroke-width="2" stroke-linejoin="bevel" stroke-linecap="round" stroke="#000000" />
<path d="M2448,3955 L2608,4115 2608,4627 " fill="none" stroke-width="2" stroke-linejoin="bevel" stroke-linecap="round" stroke="#000000" />
<path d="M2448,4307 L2448,4627 " fill="none" stroke-width="2" stroke-linejoin="bevel" stroke-linecap="round" stroke="#000000" />
<path d="M2096,3955 L2256,4115 2256,4627 " fill="none" stroke-width="2" stroke-linejoin="bevel" stroke-linecap="round" stroke="#000000" />
<path d="M2096,4307 L2096,4627 " fill="none" stroke-width="2" stroke-linejoin="bevel" stroke-linecap="round" stroke="#000000" />
<path d="M2096,3251 L1936,3411 1936,4627 " fill="none" stroke-width="2" stroke-linejoin="bevel" stroke-linecap="round" stroke="#000000" />
<path d="M1744,4307 L1744,4627 " fill="none" stroke-width="2" stroke-linejoin="bevel" stroke-linecap="round" stroke="#000000" />
<path d="M1744,3955 L1584,4115 1584,4627 " fill="none" stroke-width="2" stroke-linejoin="bevel" stroke-linecap="round" stroke="#000000" />
<path d="M1744,3603 L1552,3795 1552,4051 1488,4115 1328,4115 1200,4243 1200,4627 " fill="none" stroke-width="2" stroke-linejoin="bevel" stroke-linecap="round" stroke="#000000" />
<path d="M1392,3955 L1232,4115 784,4115 " fill="none" stroke-width="2" stroke-linejoin="bevel" stroke-linecap="round" stroke="#000000" />
<path d="M784,3955 L1040,3955 " fill="none" stroke-width="2" stroke-linejoin="bevel" stroke-linecap="round" stroke="#000000" />
<path d="M784,3603 L1040,3603 " fill="none" stroke-width="2" stroke-linejoin="bevel" stroke-linecap="round" stroke="#000000" />
<path d="M784,3251 L1040,3251 " fill="none" stroke-width="2" stroke-linejoin="bevel" stroke-linecap="round" stroke="#000000" />
<path d="M784,2899 L1040,2899 " fill="none" stroke-width="2" stroke-linejoin="bevel" stroke-linecap="round" stroke="#000000" />
<path d="M1392,2899 L1232,2739 784,2739 " fill="none" stroke-width="2" stroke-linejoin="bevel" stroke-linecap="round" stroke="#000000" />
<path d="M1392,2547 L1232,2387 784,2387 " fill="none" stroke-width="2" stroke-linejoin="bevel" stroke-linecap="round" stroke="#000000" />
<path d="M784,2547 L1040,2547 " fill="none" stroke-width="2" stroke-linejoin="bevel" stroke-linecap="round" stroke="#000000" />
<path d="M784,2195 L1040,2195 " fill="none" stroke-width="2" stroke-linejoin="bevel" stroke-linecap="round" stroke="#000000" />
<path d="M1392,2195 L1232,2035 784,2035 " fill="none" stroke-width="2" stroke-linejoin="bevel" stroke-linecap="round" stroke="#000000" />
<path d="M784,1843 L1040,1843 " fill="none" stroke-width="2" stroke-linejoin="bevel" stroke-linecap="round" stroke="#000000" />
<path d="M1040,1139 L784,883 " fill="none" stroke-width="2" stroke-linejoin="bevel" stroke-linecap="round" stroke="#000000" />
<ellipse cx="2800" cy="1139" rx="112" ry="112" fill="#999999" stroke-width="2" stroke-linejoin="bevel" stroke-linecap="round" stroke="#999999" />
<ellipse cx="2800" cy="1139" rx="112" ry="112" fill="none" stroke-width="2" stroke-linejoin="bevel" stroke-linecap="round" stroke="#000000" />
<path d="M2800,1139 L3056,883 " fill="none" stroke-width="2" stroke-linejoin="bevel" stroke-linecap="round" stroke="#000000" />
<ellipse cx="2448" cy="1139" rx="112" ry="112" fill="none" stroke-width="2" stroke-linejoin="bevel" stroke-linecap="round" stroke="#000000" />
<ellipse cx="2096" cy="1139" rx="112" ry="112" fill="none" stroke-width="2" stroke-linejoin="bevel" stroke-linecap="round" stroke="#000000" />
<ellipse cx="1744" cy="1139" rx="112" ry="112" fill="none" stroke-width="2" stroke-linejoin="bevel" stroke-linecap="round" stroke="#000000" />
<ellipse cx="1392" cy="1139" rx="112" ry="112" fill="none" stroke-width="2" stroke-linejoin="bevel" stroke-linecap="round" stroke="#000000" />
<ellipse cx="1040" cy="1139" rx="112" ry="112" fill="none" stroke-width="2" stroke-linejoin="bevel" stroke-linecap="round" stroke="#000000" />
<ellipse cx="1392" cy="1491" rx="112" ry="112" fill="none" stroke-width="2" stroke-linejoin="bevel" stroke-linecap="round" stroke="#000000" />
<ellipse cx="1744" cy="1491" rx="112" ry="112" fill="none" stroke-width="2" stroke-linejoin="bevel" stroke-linecap="round" stroke="#000000" />
<ellipse cx="2096" cy="1491" rx="112" ry="112" fill="none" stroke-width="2" stroke-linejoin="bevel" stroke-linecap="round" stroke="#000000" />
<ellipse cx="2448" cy="1491" rx="112" ry="112" fill="none" stroke-width="2" stroke-linejoin="bevel" stroke-linecap="round" stroke="#000000" />
<ellipse cx="1040" cy="1843" rx="112" ry="112" fill="none" stroke-width="2" stroke-linejoin="bevel" stroke-linecap="round" stroke="#000000" />
<ellipse cx="1744" cy="1843" rx="112" ry="112" fill="none" stroke-width="2" stroke-linejoin="bevel" stroke-linecap="round" stroke="#000000" />
<ellipse cx="2096" cy="1843" rx="112" ry="112" fill="none" stroke-width="2" stroke-linejoin="bevel" stroke-linecap="round" stroke="#000000" />
<ellipse cx="1392" cy="1843" rx="112" ry="112" fill="none" stroke-width="2" stroke-linejoin="bevel" stroke-linecap="round" stroke="#000000" />
<ellipse cx="2800" cy="1843" rx="112" ry="112" fill="none" stroke-width="2" stroke-linejoin="bevel" stroke-linecap="round" stroke="#000000" />
<ellipse cx="1040" cy="2195" rx="112" ry="112" fill="none" stroke-width="2" stroke-linejoin="bevel" stroke-linecap="round" stroke="#000000" />
<ellipse cx="1392" cy="2195" rx="112" ry="112" fill="none" stroke-width="2" stroke-linejoin="bevel" stroke-linecap="round" stroke="#000000" />
<ellipse cx="2448" cy="2195" rx="112" ry="112" fill="none" stroke-width="2" stroke-linejoin="bevel" stroke-linecap="round" stroke="#000000" />
<ellipse cx="2800" cy="2195" rx="112" ry="112" fill="none" stroke-width="2" stroke-linejoin="bevel" stroke-linecap="round" stroke="#000000" />
<ellipse cx="1040" cy="2547" rx="112" ry="112" fill="none" stroke-width="2" stroke-linejoin="bevel" stroke-linecap="round" stroke="#000000" />
<ellipse cx="1392" cy="2547" rx="112" ry="112" fill="none" stroke-width="2" stroke-linejoin="bevel" stroke-linecap="round" stroke="#000000" />
<ellipse cx="2448" cy="2547" rx="112" ry="112" fill="none" stroke-width="2" stroke-linejoin="bevel" stroke-linecap="round" stroke="#000000" />
<ellipse cx="2800" cy="2547" rx="112" ry="112" fill="none" stroke-width="2" stroke-linejoin="bevel" stroke-linecap="round" stroke="#000000" />
<ellipse cx="2432" cy="2899" rx="112" ry="112" fill="none" stroke-width="2" stroke-linejoin="bevel" stroke-linecap="round" stroke="#000000" />
<path d="M2448,2899 L2608,3059 3056,3059 " fill="none" stroke-width="2" stroke-linejoin="bevel" stroke-linecap="round" stroke="#000000" />
<ellipse cx="1040" cy="3251" rx="112" ry="112" fill="none" stroke-width="2" stroke-linejoin="bevel" stroke-linecap="round" stroke="#000000" />
<ellipse cx="1744" cy="3251" rx="112" ry="112" fill="none" stroke-width="2" stroke-linejoin="bevel" stroke-linecap="round" stroke="#000000" />
<ellipse cx="1392" cy="3251" rx="112" ry="112" fill="none" stroke-width="2" stroke-linejoin="bevel" stroke-linecap="round" stroke="#000000" />
<ellipse cx="2800" cy="3251" rx="112" ry="112" fill="none" stroke-width="2" stroke-linejoin="bevel" stroke-linecap="round" stroke="#000000" />
<ellipse cx="1040" cy="3603" rx="112" ry="112" fill="none" stroke-width="2" stroke-linejoin="bevel" stroke-linecap="round" stroke="#000000" />
<ellipse cx="1392" cy="3603" rx="112" ry="112" fill="none" stroke-width="2" stroke-linejoin="bevel" stroke-linecap="round" stroke="#000000" />
<path d="M1392,3603 L1232,3763 784,3763 " fill="none" stroke-width="2" stroke-linejoin="bevel" stroke-linecap="round" stroke="#000000" />
<ellipse cx="1744" cy="3603" rx="112" ry="112" fill="none" stroke-width="2" stroke-linejoin="bevel" stroke-linecap="round" stroke="#000000" />
<ellipse cx="2096" cy="3603" rx="112" ry="112" fill="none" stroke-width="2" stroke-linejoin="bevel" stroke-linecap="round" stroke="#000000" />
<ellipse cx="2448" cy="3603" rx="112" ry="112" fill="none" stroke-width="2" stroke-linejoin="bevel" stroke-linecap="round" stroke="#000000" />
<ellipse cx="2800" cy="3603" rx="112" ry="112" fill="none" stroke-width="2" stroke-linejoin="bevel" stroke-linecap="round" stroke="#000000" />
<ellipse cx="2800" cy="3955" rx="112" ry="112" fill="none" stroke-width="2" stroke-linejoin="bevel" stroke-linecap="round" stroke="#000000" />
<ellipse cx="2448" cy="3955" rx="112" ry="112" fill="none" stroke-width="2" stroke-linejoin="bevel" stroke-linecap="round" stroke="#000000" />
<ellipse cx="2096" cy="3955" rx="112" ry="112" fill="none" stroke-width="2" stroke-linejoin="bevel" stroke-linecap="round" stroke="#000000" />
<ellipse cx="1744" cy="3955" rx="112" ry="112" fill="none" stroke-width="2" stroke-linejoin="bevel" stroke-linecap="round" stroke="#000000" />
<ellipse cx="1392" cy="3955" rx="112" ry="112" fill="none" stroke-width="2" stroke-linejoin="bevel" stroke-linecap="round" stroke="#000000" />
<ellipse cx="1040" cy="3955" rx="112" ry="112" fill="none" stroke-width="2" stroke-linejoin="bevel" stroke-linecap="round" stroke="#000000" />
<ellipse cx="1392" cy="4307" rx="112" ry="112" fill="none" stroke-width="2" stroke-linejoin="bevel" stroke-linecap="round" stroke="#000000" />
<path d="M1392,4307 L1392,4627 " fill="none" stroke-width="2" stroke-linejoin="bevel" stroke-linecap="round" stroke="#000000" />
<ellipse cx="1744" cy="4307" rx="112" ry="112" fill="none" stroke-width="2" stroke-linejoin="bevel" stroke-linecap="round" stroke="#000000" />
<ellipse cx="2096" cy="4307" rx="112" ry="112" fill="none" stroke-width="2" stroke-linejoin="bevel" stroke-linecap="round" stroke="#000000" />
<ellipse cx="2448" cy="4307" rx="112" ry="112" fill="none" stroke-width="2" stroke-linejoin="bevel" stroke-linecap="round" stroke="#000000" />
<path d="M1392,1843 L1200,1651 1200,1395 1104,1299 784,1299 " fill="none" stroke-width="2" stroke-linejoin="bevel" stroke-linecap="round" stroke="#000000" />
<path d="M1392,3251 L1232,3091 784,3091 " fill="none" stroke-width="2" stroke-linejoin="bevel" stroke-linecap="round" stroke="#000000" />
<path d="M1744,3251 L1584,3411 784,3411 " fill="none" stroke-width="2" stroke-linejoin="bevel" stroke-linecap="round" stroke="#000000" />
<g transform="matrix(1.75    0   -0 1.75 3088 835)" fill="#000000" >
<text stroke="none" font-family="Helvetica" font-size="40" ><tspan x="0" y="0">mprj_io[23]</tspan>
</text></g>
<g transform="matrix(-2.04566e-11 -1.75 1.75 -2.04566e-11 2448 707)" fill="#000000" >
<text stroke="none" font-family="Helvetica" font-size="40" ><tspan x="0" y="15">mprj_io[21]</tspan>
</text></g>
<g transform="matrix(-2.04566e-11 -1.75 1.75 -2.04566e-11 2096 707)" fill="#000000" >
<text stroke="none" font-family="Helvetica" font-size="40" ><tspan x="0" y="15">mprj_io[19]</tspan>
</text></g>
<g transform="matrix(-2.04566e-11 -1.75 1.75 -2.04566e-11 1744 707)" fill="#000000" >
<text stroke="none" font-family="Helvetica" font-size="40" ><tspan x="0" y="15">mprj_io[18]</tspan>
</text></g>
<g transform="matrix(-2.04566e-11 -1.75 1.75 -2.04566e-11 1392 707)" fill="#000000" >
<text stroke="none" font-family="Helvetica" font-size="40" ><tspan x="0" y="15">mprj_io[16]</tspan>
</text></g>
<g transform="matrix(1.75 -2.72755e-11 2.72755e-11 1.75 720 851)" fill="#000000" >
<text stroke="none" font-family="Helvetica" font-size="40" ><tspan x="-198" y="15">mprj_io[15]</tspan>
</text></g>
<g transform="matrix(1.75 -2.72755e-11 2.72755e-11 1.75 736 1491)" fill="#000000" >
<text stroke="none" font-family="Helvetica" font-size="40" ><tspan x="-105" y="15">vccd1</tspan>
</text></g>
<g transform="matrix(1.75    0   -0 1.75 2832 963)" fill="#000000" >
<text stroke="none" font-family="Helvetica"  font-weight="bold" font-size="40" ><tspan x="0" y="0">A</tspan>
</text></g>
<g transform="matrix(1.75    0   -0 1.75 2496 963)" fill="#000000" >
<text stroke="none" font-family="Helvetica"  font-weight="bold" font-size="40" ><tspan x="0" y="0">B</tspan>
</text></g>
<g transform="matrix(1.75    0   -0 1.75 2128 963)" fill="#000000" >
<text stroke="none" font-family="Helvetica"  font-weight="bold" font-size="40" ><tspan x="0" y="0">C</tspan>
</text></g>
<g transform="matrix(1.75    0   -0 1.75 1792 963)" fill="#000000" >
<text stroke="none" font-family="Helvetica"  font-weight="bold" font-size="40" ><tspan x="0" y="0">D</tspan>
</text></g>
<g transform="matrix(1.75    0   -0 1.75 1424 963)" fill="#000000" >
<text stroke="none" font-family="Helvetica"  font-weight="bold" font-size="40" ><tspan x="0" y="0">E</tspan>
</text></g>
<g transform="matrix(1.75    0   -0 1.75 1072 963)" fill="#000000" >
<text stroke="none" font-family="Helvetica"  font-weight="bold" font-size="40" ><tspan x="0" y="0">F</tspan>
</text></g>
<g transform="matrix(1.75    0   -0 1.75 2944 1107)" fill="#000000" >
<text stroke="none" font-family="Helvetica"  font-weight="bold" font-size="40" ><tspan x="0" y="0">1</tspan>
</text></g>
<g transform="matrix(1.75    0   -0 1.75 2944 1459)" fill="#000000" >
<text stroke="none" font-family="Helvetica"  font-weight="bold" font-size="40" ><tspan x="0" y="0">2</tspan>
</text></g>
<g transform="matrix(1.75    0   -0 1.75 2944 1811)" fill="#000000" >
<text stroke="none" font-family="Helvetica"  font-weight="bold" font-size="40" ><tspan x="0" y="0">3</tspan>
</text></g>
<g transform="matrix(1.75    0   -0 1.75 2944 2147)" fill="#000000" >
<text stroke="none" font-family="Helvetica"  font-weight="bold" font-size="40" ><tspan x="0" y="0">4</tspan>
</text></g>
<g transform="matrix(1.75    0   -0 1.75 2944 2499)" fill="#000000" >
<text stroke="none" font-family="Helvetica"  font-weight="bold" font-size="40" ><tspan x="0" y="0">5</tspan>
</text></g>
<g transform="matrix(1.75    0   -0 1.75 2928 2851)" fill="#000000" >
<text stroke="none" font-family="Helvetica"  font-weight="bold" font-size="40" ><tspan x="0" y="0">6</tspan>
</text></g>
<g transform="matrix(1.75    0   -0 1.75 2944 3219)" fill="#000000" >
<text stroke="none" font-family="Helvetica"  font-weight="bold" font-size="40" ><tspan x="0" y="0">7</tspan>
</text></g>
<g transform="matrix(1.75    0   -0 1.75 2944 3555)" fill="#000000" >
<text stroke="none" font-family="Helvetica"  font-weight="bold" font-size="40" ><tspan x="0" y="0">8</tspan>
</text></g>
<g transform="matrix(1.75    0   -0 1.75 2944 3907)" fill="#000000" >
<text stroke="none" font-family="Helvetica"  font-weight="bold" font-size="40" ><tspan x="0" y="0">9</tspan>
</text></g>
<g transform="matrix(1.75    0   -0 1.75 2928 4275)" fill="#000000" >
<text stroke="none" font-family="Helvetica"  font-weight="bold" font-size="40" ><tspan x="0" y="0">10</tspan>
</text></g>
<g transform="matrix(1.75    0   -0 1.75 3120 1491)" fill="#000000" >
<text stroke="none" font-family="Helvetica" font-size="40" ><tspan x="0" y="0">vccd2</tspan>
</text></g>
<g transform="matrix(1.75    0   -0 1.75 3104 1827)" fill="#000000" >
<text stroke="none" font-family="Helvetica" font-size="40" ><tspan x="0" y="15">mprj_io[25]</tspan>
</text></g>
<g transform="matrix(1.75    0   -0 1.75 3104 2195)" fill="#000000" >
<text stroke="none" font-family="Helvetica" font-size="40" ><tspan x="0" y="15">mprj_io[27]</tspan>
</text></g>
<g transform="matrix(1.75    0   -0 1.75 3088 2547)" fill="#000000" >
<text stroke="none" font-family="Helvetica" font-size="40" ><tspan x="0" y="15">mprj_io[29]</tspan>
</text></g>
<path d="M2800,2899 L3056,2899 " fill="none" stroke-width="2" stroke-linejoin="bevel" stroke-linecap="round" stroke="#000000" />
<g transform="matrix(1.75    0   -0 1.75 3088 2899)" fill="#000000" >
<text stroke="none" font-family="Helvetica" font-size="40" ><tspan x="0" y="15">mprj_io[31]</tspan>
</text></g>
<g transform="matrix(1.75    0   -0 1.75 3104 3235)" fill="#000000" >
<text stroke="none" font-family="Helvetica" font-size="40" ><tspan x="0" y="15">mprj_io[32]</tspan>
</text></g>
<g transform="matrix(1.75    0   -0 1.75 3088 3603)" fill="#000000" >
<text stroke="none" font-family="Helvetica" font-size="40" ><tspan x="0" y="15">mprj_io[35]</tspan>
</text></g>
<g transform="matrix(1.75    0   -0 1.75 3088 3955)" fill="#000000" >
<text stroke="none" font-family="Helvetica" font-size="40" ><tspan x="0" y="15">mprj_io[37]</tspan>
</text></g>
<g transform="matrix(1.75    0   -0 1.75 3072 4563)" fill="#000000" >
<text stroke="none" font-family="Helvetica" font-size="40" ><tspan x="0" y="15">vdda</tspan>
</text></g>
<g transform="matrix(1.75    0   -0 1.75 3104 1331)" fill="#000000" >
<text stroke="none" font-family="Helvetica" font-size="40" ><tspan x="0" y="15">mprj_io[24]</tspan>
</text></g>
<g transform="matrix(1.75    0   -0 1.75 3088 1683)" fill="#000000" >
<text stroke="none" font-family="Helvetica" font-size="40" ><tspan x="0" y="14">vssa2</tspan>
</text></g>
<g transform="matrix(1.75    0   -0 1.75 3104 2035)" fill="#000000" >
<text stroke="none" font-family="Helvetica" font-size="40" ><tspan x="0" y="15">vddio</tspan>
</text></g>
<g transform="matrix(1.75    0   -0 1.75 3104 2355)" fill="#000000" >
<text stroke="none" font-family="Helvetica" font-size="40" ><tspan x="0" y="15">mprj_io[26]</tspan>
</text></g>
<g transform="matrix(1.75    0   -0 1.75 3104 2707)" fill="#000000" >
<text stroke="none" font-family="Helvetica" font-size="40" ><tspan x="0" y="15">mprj_io[28]</tspan>
</text></g>
<g transform="matrix(1.75    0   -0 1.75 3104 3059)" fill="#000000" >
<text stroke="none" font-family="Helvetica" font-size="40" ><tspan x="0" y="15">mprj_io[30]</tspan>
</text></g>
<g transform="matrix(1.75    0   -0 1.75 3120 3411)" fill="#000000" >
<text stroke="none" font-family="Helvetica" font-size="40" ><tspan x="0" y="15">vssd2</tspan>
</text></g>
<g transform="matrix(1.75    0   -0 1.75 3104 3763)" fill="#000000" >
<text stroke="none" font-family="Helvetica" font-size="40" ><tspan x="0" y="15">mprj_io[34]</tspan>
</text></g>
<g transform="matrix(1.75    0   -0 1.75 3088 4115)" fill="#000000" >
<text stroke="none" font-family="Helvetica" font-size="40" ><tspan x="0" y="15">mprj_io[33]</tspan>
</text></g>
<g transform="matrix(-2.04566e-11 -1.75 1.75 -2.04566e-11 2608 707)" fill="#000000" >
<text stroke="none" font-family="Helvetica" font-size="40" ><tspan x="0" y="15">mprj_io[22]</tspan>
</text></g>
<g transform="matrix(-2.04566e-11 -1.75 1.75 -2.04566e-11 2256 691)" fill="#000000" >
<text stroke="none" font-family="Helvetica" font-size="40" ><tspan x="0" y="15">mprj_io[20]</tspan>
</text></g>
<g transform="matrix(-2.04566e-11 -1.75 1.75 -2.04566e-11 1904 691)" fill="#000000" >
<text stroke="none" font-family="Helvetica" font-size="40" ><tspan x="0" y="15">mprj_io[17]</tspan>
</text></g>
<g transform="matrix(-2.04566e-11 -1.75 1.75 -2.04566e-11 1552 691)" fill="#000000" >
<text stroke="none" font-family="Helvetica" font-size="40" ><tspan x="0" y="15">mprj_io[13]</tspan>
</text></g>
<g transform="matrix(-2.04566e-11 -1.75 1.75 -2.04566e-11 1216 691)" fill="#000000" >
<text stroke="none" font-family="Helvetica" font-size="40" ><tspan x="0" y="15">mprj_io[14]</tspan>
</text></g>
<g transform="matrix(1.75    0   -0 1.75 736 1683)" fill="#000000" >
<text stroke="none" font-family="Helvetica" font-size="40" ><tspan x="-110" y="15">vdda1</tspan>
</text></g>
<g transform="matrix(1.75    0   -0 1.75 736 1299)" fill="#000000" >
<text stroke="none" font-family="Helvetica" font-size="40" ><tspan x="-393" y="15">mprj_io[11]/flash2_io1</tspan>
</text></g>
<g transform="matrix(1.75    0   -0 1.75 720 1843)" fill="#000000" >
<text stroke="none" font-family="Helvetica" font-size="40" ><tspan x="-198" y="15">mprj_io[12]</tspan>
</text></g>
<g transform="matrix(1.75    0   -0 1.75 688 2035)" fill="#000000" >
<text stroke="none" font-family="Helvetica" font-size="40" ><tspan x="-377" y="15">mprj_io[9]/flash2_sck</tspan>
</text></g>
<g transform="matrix(1.75    0   -0 1.75 688 2195)" fill="#000000" >
<text stroke="none" font-family="Helvetica" font-size="40" ><tspan x="-393" y="15">mprj_io[10]/flash2_io0</tspan>
</text></g>
<g transform="matrix(1.75    0   -0 1.75 672 2387)" fill="#000000" >
<text stroke="none" font-family="Helvetica" font-size="40" ><tspan x="-232" y="15">mprj_io[7]/irq</tspan>
</text></g>
<g transform="matrix(1.75    0   -0 1.75 672 2547)" fill="#000000" >
<text stroke="none" font-family="Helvetica" font-size="40" ><tspan x="-379" y="15">mprj_io[8]/flash2_csb</tspan>
</text></g>
<g transform="matrix(1.75    0   -0 1.75 672 2723)" fill="#000000" >
<text stroke="none" font-family="Helvetica" font-size="40" ><tspan x="-105" y="14">vssa1</tspan>
</text></g>
<g transform="matrix(1.75    0   -0 1.75 656 2899)" fill="#000000" >
<text stroke="none" font-family="Helvetica" font-size="40" ><tspan x="-105" y="15">vssd1</tspan>
</text></g>
<g transform="matrix(1.75    0   -0 1.75 656 3091)" fill="#000000" >
<text stroke="none" font-family="Helvetica" font-size="40" ><tspan x="-298" y="15">mrpj_io[5]/ser_rx</tspan>
</text></g>
<g transform="matrix(1.75    0   -0 1.75 640 3251)" fill="#000000" >
<text stroke="none" font-family="Helvetica" font-size="40" ><tspan x="-296" y="15">mprj_io[6]/ser_tx</tspan>
</text></g>
<g transform="matrix(1.75    0   -0 1.75 640 3395)" fill="#000000" >
<text stroke="none" font-family="Helvetica" font-size="40" ><tspan x="-290" y="15">mprj_io[0]/JTAG</tspan>
</text></g>
<g transform="matrix(1.75    0   -0 1.75 640 3603)" fill="#000000" >
<text stroke="none" font-family="Helvetica" font-size="40" ><tspan x="-270" y="15">mprj_io[4]/SCK</tspan>
</text></g>
<g transform="matrix(1.75    0   -0 1.75 624 3763)" fill="#000000" >
<text stroke="none" font-family="Helvetica" font-size="40" ><tspan x="-270" y="15">mprj_io[3]/CSB</tspan>
</text></g>
<g transform="matrix(1.75    0   -0 1.75 624 3955)" fill="#000000" >
<text stroke="none" font-family="Helvetica" font-size="40" ><tspan x="-254" y="15">mprj_io[2]/SDI</tspan>
</text></g>
<g transform="matrix(1.75    0   -0 1.75 624 4115)" fill="#000000" >
<text stroke="none" font-family="Helvetica" font-size="40" ><tspan x="-274" y="15">mprj_io[1]/SDO</tspan>
</text></g>
<g transform="matrix(1.75    0   -0 1.75 688 4563)" fill="#000000" >
<text stroke="none" font-family="Helvetica" font-size="40" ><tspan x="-87" y="15">vdda</tspan>
</text></g>
<g transform="matrix(1.75    0   -0 1.75 1920 2723)" fill="#000000" >
<text stroke="none" font-family="Helvetica" font-size="40" ><tspan x="-139" y="15">vssio/vssa/vssd</tspan>
</text></g>
<g transform="matrix(-2.04566e-11 -1.75 1.75 -2.04566e-11 1200 4691)" fill="#000000" >
<text stroke="none" font-family="Helvetica" font-size="40" ><tspan x="-156" y="15">flash_clk</tspan>
</text></g>
<g transform="matrix(-2.04566e-11 -1.75 1.75 -2.04566e-11 1392 4691)" fill="#000000" >
<text stroke="none" font-family="Helvetica" font-size="40" ><tspan x="-76" y="15">gpio</tspan>
</text></g>
<g transform="matrix(-2.04566e-11 -1.75 1.75 -2.04566e-11 1584 4691)" fill="#000000" >
<text stroke="none" font-family="Helvetica" font-size="40" ><tspan x="-161" y="15">flash_io1</tspan>
</text></g>
<g transform="matrix(-2.04566e-11 -1.75 1.75 -2.04566e-11 1744 4691)" fill="#000000" >
<text stroke="none" font-family="Helvetica" font-size="40" ><tspan x="-161" y="15">flash_io0</tspan>
</text></g>
<g transform="matrix(-2.04566e-11 -1.75 1.75 -2.04566e-11 1936 4691)" fill="#000000" >
<text stroke="none" font-family="Helvetica" font-size="40" ><tspan x="-110" y="15">vdda2</tspan>
</text></g>
<g transform="matrix(-2.04566e-11 -1.75 1.75 -2.04566e-11 2096 4675)" fill="#000000" >
<text stroke="none" font-family="Helvetica" font-size="40" ><tspan x="-170" y="15">flash_csb</tspan>
</text></g>
<g transform="matrix(-2.04566e-11 -1.75 1.75 -2.04566e-11 2256 4691)" fill="#000000" >
<text stroke="none" font-family="Helvetica" font-size="40" ><tspan x="-91" y="15">clock</tspan>
</text></g>
<g transform="matrix(-2.04566e-11 -1.75 1.75 -2.04566e-11 2448 4691)" fill="#000000" >
<text stroke="none" font-family="Helvetica" font-size="40" ><tspan x="-112" y="15">resetb</tspan>
</text></g>
<g transform="matrix(-2.04566e-11 -1.75 1.75 -2.04566e-11 2608 4691)" fill="#000000" >
<text stroke="none" font-family="Helvetica" font-size="40" ><tspan x="-198" y="15">mprj_io[36]</tspan>
</text></g>
</g>
</svg>
